<svg width="1121" height="715" viewBox="0 0 1121 715" fill="none" xmlns="http://www.w3.org/2000/svg">
<path d="M416 704.831V709.133H410.133V715H405.831V709.133H400V704.831H405.831V699H410.133V704.831H416Z" fill="#21D0ED"/>
<path d="M46 686C46 693.18 40.1797 699 33 699C25.8203 699 20 693.18 20 686C20 678.82 25.8203 673 33 673C40.1797 673 46 678.82 46 686ZM26.3696 686C26.3696 689.662 29.3381 692.63 33 692.63C36.6619 692.63 39.6304 689.662 39.6304 686C39.6304 682.338 36.6619 679.37 33 679.37C29.3381 679.37 26.3696 682.338 26.3696 686Z" fill="#21D0ED"/>
<path d="M84 99C84 106.18 78.1797 112 71 112C63.8203 112 58 106.18 58 99C58 91.8203 63.8203 86 71 86C78.1797 86 84 91.8203 84 99ZM64.3696 99C64.3696 102.662 67.3381 105.63 71 105.63C74.6619 105.63 77.6304 102.662 77.6304 99C77.6304 95.3381 74.6619 92.3696 71 92.3696C67.3381 92.3696 64.3696 95.3381 64.3696 99Z" fill="#21D0ED"/>
<path d="M563 211C563 218.18 557.18 224 550 224C542.82 224 537 218.18 537 211C537 203.82 542.82 198 550 198C557.18 198 563 203.82 563 211ZM543.37 211C543.37 214.662 546.338 217.63 550 217.63C553.662 217.63 556.63 214.662 556.63 211C556.63 207.338 553.662 204.37 550 204.37C546.338 204.37 543.37 207.338 543.37 211Z" fill="#21D0ED"/>
<path d="M743 686C743 693.18 737.18 699 730 699C722.82 699 717 693.18 717 686C717 678.82 722.82 673 730 673C737.18 673 743 678.82 743 686ZM723.37 686C723.37 689.662 726.338 692.63 730 692.63C733.662 692.63 736.63 689.662 736.63 686C736.63 682.338 733.662 679.37 730 679.37C726.338 679.37 723.37 682.338 723.37 686Z" fill="#21D0ED"/>
<path d="M778 83.8311V88.1333H772.133V94H767.831V88.1333H762V83.8311H767.831V78H772.133V83.8311H778Z" fill="#21D0ED"/>
<path d="M1121 639.831V644.133H1115.13V650H1110.83V644.133H1105V639.831H1110.83V634H1115.13V639.831H1121Z" fill="#21D0ED"/>
<path d="M650 537.831V542.133H644.133V548H639.831V542.133H634V537.831H639.831V532H644.133V537.831H650Z" fill="#21D0ED"/>
<g opacity="0.05">
<path fill-rule="evenodd" clip-rule="evenodd" d="M402.109 478.774C440.729 411.884 417.81 326.351 350.92 287.732C284.029 249.113 198.497 272.031 159.878 338.922C121.259 405.812 144.177 491.345 211.067 529.964C237.552 545.255 266.959 550.898 295.219 547.985L345.263 598.029L366.233 519.768C380.366 508.916 392.646 495.165 402.109 478.774Z" fill="#8575FC"/>
<path fill-rule="evenodd" clip-rule="evenodd" d="M248.02 341.647C273.088 298.227 258.212 242.706 214.792 217.638C171.371 192.569 115.85 207.446 90.7818 250.866C65.7132 294.286 80.59 349.807 124.01 374.876C141.202 384.801 160.291 388.465 178.635 386.574L211.119 419.058L224.731 368.257C233.905 361.213 241.877 352.287 248.02 341.647Z" fill="#FFE500"/>
<path fill-rule="evenodd" clip-rule="evenodd" d="M538.212 366.027C583.967 286.778 556.814 185.442 477.564 139.687C398.315 93.9322 296.979 121.085 251.224 200.335C205.469 279.584 232.622 380.92 311.872 426.675C343.25 444.791 378.091 451.478 411.573 448.027L470.862 507.316L495.707 414.596C512.451 401.739 527 385.447 538.212 366.027Z" fill="#E08C29"/>
</g>
</svg>
