<svg width="37" height="36" viewBox="0 0 37 36" fill="none" xmlns="http://www.w3.org/2000/svg">
<path d="M27.9502 2.78781L26.6015 4.13653C26.3922 4.35691 26.0017 4.37834 25.7601 4.13653C25.5272 3.90385 25.5272 3.52781 25.7601 3.29513L27.1088 1.94642C27.3415 1.71366 27.7175 1.71366 27.9561 1.94642C28.1889 2.17916 28.1889 2.55513 27.9502 2.78781Z" fill="#21D0ED"/>
<path d="M29.896 6.92335C29.884 7.24563 29.6215 7.4963 29.2992 7.4963H29.2753L27.3716 7.41864C27.0434 7.4008 26.7868 7.12623 26.7987 6.79208C26.8107 6.47577 27.0732 6.2251 27.3955 6.2251H27.4194L29.3231 6.30275C29.6573 6.3147 29.9079 6.59517 29.896 6.92335Z" fill="#21D0ED"/>
<path d="M23.5934 0.573766L23.671 2.47751C23.6889 2.8057 23.4323 3.08616 23.104 3.09811H23.0742C22.7579 3.09811 22.4954 2.84751 22.4834 2.52523L22.3998 0.621554C22.3879 0.2933 22.6446 0.0128342 22.9728 0.000884331C23.3069 -0.0170375 23.5815 0.239609 23.5934 0.573766Z" fill="#21D0ED"/>
<path d="M19.7902 15.9361L13.9606 10.1071L14.751 5.24039L24.6588 15.1482L19.7902 15.9361ZM26.8624 14.7913L26.1117 14.9128L14.9869 3.78852L15.1089 3.03689C15.1869 2.55663 15.7759 2.36652 16.12 2.71056L27.1891 13.7802C27.5333 14.1244 27.3429 14.7136 26.8624 14.7913ZM24.4362 5.4652C25.5907 6.6197 25.7166 8.41935 24.8156 9.71838L20.1783 5.08114C21.4779 4.18131 23.2799 4.30953 24.4362 5.4652ZM10.4044 21.3409C9.89504 21.8497 9.06515 21.8508 8.5558 21.3409C8.04585 20.831 8.04585 20.0017 8.5558 19.4917L9.48476 18.5628C9.54453 18.6225 11.4521 20.5296 11.3339 20.4114L10.4044 21.3409ZM13.3813 20.7709C11.9775 19.3674 10.6988 18.0889 9.12518 16.5154C8.80581 16.1961 8.80581 15.6756 9.12518 15.3557L13.3236 11.1579L18.7388 16.5731C13.0287 22.2824 20.183 15.1292 14.5404 20.7709C14.2304 21.0804 13.6919 21.0816 13.3813 20.7709ZM23.0678 23.83C22.6959 23.458 24.6209 25.3867 18.1205 18.8768C17.655 19.3422 16.3242 20.6731 16.2645 20.7328L21.2177 25.68C21.725 26.1933 22.5545 26.1933 23.0678 25.68C23.581 25.1727 23.581 24.3373 23.0678 23.83Z" fill="#21D0ED"/>
<path d="M0 31.1211V32.266C0 33.8618 1.2952 35.157 2.89108 35.157H34.1089C35.7048 35.157 37 33.8618 37 32.266V31.1211C35.9658 31.1211 42.3827 31.1211 0 31.1211Z" fill="#21D0ED"/>
<path d="M33.8101 8.26013H26.5771C26.5055 9.0061 26.2489 9.74617 25.7953 10.3966L25.6759 10.5756L26.3444 11.244H32.5807V26.9452H23.3486C22.6191 27.3518 21.6934 27.3663 20.9376 26.9452H4.41893V11.244H11.5444L12.7618 10.0266L13.0483 8.26013H3.18954C2.22277 8.26013 1.43506 9.04194 1.43506 10.0087V29.929H35.5645V10.0087C35.5645 9.04194 34.7768 8.26013 33.8101 8.26013Z" fill="#21D0ED"/>
</svg>
