<svg width="16" height="16" viewBox="0 0 16 16" fill="none" xmlns="http://www.w3.org/2000/svg">
<path d="M0.68225 5.14037L7.6175 0.98237C7.73406 0.912432 7.86744 0.875488 8.00338 0.875488C8.13931 0.875488 8.27269 0.912432 8.38925 0.98237L15.3177 5.14112C15.3733 5.17443 15.4194 5.22158 15.4513 5.27797C15.4832 5.33436 15.5 5.39806 15.5 5.46287V14.9999C15.5 15.1988 15.421 15.3895 15.2803 15.5302C15.1397 15.6709 14.9489 15.7499 14.75 15.7499H1.25C1.05109 15.7499 0.860322 15.6709 0.71967 15.5302C0.579018 15.3895 0.5 15.1988 0.5 14.9999V5.46212C0.499986 5.39731 0.516768 5.33361 0.548709 5.27722C0.58065 5.22083 0.626659 5.17368 0.68225 5.14037ZM12.7595 6.18287L8.04575 10.2621L3.23525 6.17837L2.26475 7.32137L8.05475 12.2376L13.7405 7.31762L12.7595 6.18287Z" fill="black"/>
</svg>
