<svg width="722" height="392" viewBox="0 0 722 392" fill="none" xmlns="http://www.w3.org/2000/svg">
<g clip-path="url(#clip0_153_2)">
<path d="M363.317 392C559.093 392 717.801 381.509 717.801 368.569C717.801 355.628 559.093 345.137 363.317 345.137C167.541 345.137 8.83301 355.628 8.83301 368.569C8.83301 381.509 167.541 392 363.317 392Z" fill="#F2F2F2"/>
<path d="M349.73 112.058C291.975 112.058 250.508 149.055 250.508 235.381C250.508 333.216 291.975 359.114 349.73 359.114C407.486 359.114 451.423 330.75 451.423 235.381C451.423 133.434 407.486 112.058 349.73 112.058ZM350.11 326.639C310.108 326.639 289.209 303.207 289.209 235.444C289.209 175.653 310.963 144.122 350.966 144.122C390.968 144.122 412.723 164.833 412.723 235.444C412.722 301.499 390.113 326.639 350.11 326.639Z" fill="#2F2E41"/>
<path d="M215.924 290.876H192.045V220.666C192.045 216.937 190.561 213.36 187.92 210.724C185.279 208.087 181.697 206.605 177.962 206.605H172.367C170.517 206.605 168.686 206.969 166.978 207.676C165.269 208.382 163.717 209.418 162.409 210.724C161.101 212.029 160.064 213.579 159.356 215.285C158.648 216.991 158.284 218.82 158.284 220.666V290.876H90.9288C89.5431 290.876 88.181 290.518 86.9746 289.838C85.7681 289.157 84.7583 288.177 84.0431 286.992C83.3279 285.807 82.9315 284.457 82.8925 283.075C82.8535 281.692 83.1732 280.322 83.8205 279.099L155.109 144.382C155.998 142.702 156.536 140.86 156.692 138.967C156.848 137.074 156.619 135.169 156.017 133.367C155.415 131.564 154.454 129.903 153.192 128.482C151.929 127.061 150.391 125.91 148.671 125.099L144.462 123.115C141.195 121.574 137.459 121.346 134.028 122.479C130.597 123.612 127.733 126.018 126.03 129.2L39.0842 291.596C37.6037 294.362 36.8291 297.449 36.8291 300.585C36.8291 303.088 37.323 305.568 38.2827 307.881C39.2423 310.194 40.6489 312.296 42.4221 314.066C44.1953 315.837 46.3004 317.241 48.6172 318.199C50.934 319.158 53.4171 319.651 55.9248 319.651H158.284V364.047C158.284 366.26 158.721 368.452 159.569 370.497C160.417 372.541 161.661 374.399 163.228 375.964C164.796 377.529 166.657 378.771 168.705 379.618C170.753 380.465 172.948 380.901 175.164 380.901H175.164C177.381 380.901 179.576 380.465 181.624 379.618C183.672 378.771 185.533 377.529 187.1 375.964C188.668 374.399 189.911 372.541 190.76 370.497C191.608 368.452 192.045 366.26 192.045 364.047V319.651H215.924C219.746 319.651 223.411 318.135 226.113 315.437C228.816 312.739 230.334 309.079 230.334 305.263C230.334 301.447 228.816 297.788 226.113 295.09C223.411 292.391 219.746 290.876 215.924 290.876Z" fill="#21D0ED"/>
<path d="M658.103 290.876H634.223V220.666C634.223 216.937 632.74 213.36 630.099 210.724C627.458 208.087 623.876 206.605 620.141 206.605H614.545C612.696 206.605 610.865 206.969 609.156 207.676C607.448 208.382 605.895 209.418 604.588 210.724C603.28 212.029 602.243 213.579 601.535 215.285C600.827 216.991 600.463 218.82 600.463 220.666V290.876H533.107C531.722 290.876 530.36 290.518 529.153 289.838C527.947 289.157 526.937 288.177 526.222 286.992C525.507 285.807 525.11 284.457 525.071 283.075C525.032 281.692 525.352 280.322 525.999 279.099L597.287 144.382C598.176 142.702 598.715 140.86 598.871 138.967C599.027 137.074 598.797 135.169 598.196 133.367C597.594 131.564 596.633 129.903 595.37 128.482C594.108 127.061 592.57 125.91 590.849 125.099L586.641 123.115C583.373 121.574 579.637 121.346 576.206 122.479C572.775 123.612 569.912 126.018 568.208 129.2L481.263 291.596C479.782 294.362 479.008 297.449 479.008 300.585C479.008 305.641 481.02 310.491 484.601 314.066C488.182 317.642 493.039 319.651 498.103 319.651H600.463V364.047C600.463 368.517 602.241 372.804 605.407 375.964C608.573 379.125 612.866 380.901 617.343 380.901C621.82 380.901 626.113 379.125 629.279 375.964C632.445 372.804 634.223 368.517 634.223 364.047V319.651H658.102C661.924 319.651 665.589 318.135 668.292 315.437C670.994 312.739 672.512 309.079 672.512 305.263C672.512 301.447 670.994 297.788 668.292 295.09C665.59 292.391 661.924 290.876 658.103 290.876Z" fill="#21D0ED"/>
<path d="M222.511 282.654H198.632V212.444C198.632 210.598 198.267 208.77 197.56 207.064C196.852 205.358 195.815 203.808 194.507 202.502C193.199 201.196 191.647 200.161 189.938 199.454C188.23 198.747 186.398 198.384 184.549 198.384H178.954C175.219 198.384 171.637 199.865 168.996 202.502C166.355 205.139 164.871 208.715 164.871 212.444V282.654H97.5157C96.1301 282.654 94.7679 282.297 93.5615 281.616C92.355 280.936 91.3452 279.955 90.63 278.77C89.9148 277.585 89.5185 276.236 89.4795 274.853C89.4405 273.47 89.7601 272.101 90.4075 270.877L161.696 136.16C162.584 134.481 163.123 132.639 163.279 130.745C163.435 128.852 163.206 126.947 162.604 125.145C162.002 123.343 161.041 121.681 159.779 120.26C158.516 118.839 156.978 117.689 155.258 116.877L151.049 114.893C147.782 113.352 144.046 113.125 140.615 114.258C137.184 115.391 134.32 117.797 132.617 120.979L45.6712 283.375C44.1906 286.14 43.416 289.228 43.416 292.363V292.363C43.416 297.42 45.4279 302.269 49.009 305.845C52.5901 309.421 57.4472 311.429 62.5117 311.429H164.871V355.825C164.871 358.039 165.308 360.23 166.156 362.275C167.004 364.32 168.248 366.178 169.815 367.743C171.383 369.308 173.244 370.55 175.292 371.396C177.34 372.243 179.535 372.679 181.751 372.679H181.751C186.228 372.679 190.522 370.904 193.687 367.743C196.853 364.582 198.631 360.295 198.631 355.825V311.429H222.511C224.403 311.429 226.277 311.057 228.025 310.334C229.774 309.611 231.362 308.551 232.7 307.215C234.038 305.879 235.1 304.293 235.824 302.548C236.548 300.802 236.921 298.931 236.921 297.042V297.042C236.921 295.152 236.548 293.281 235.824 291.536C235.1 289.79 234.038 288.204 232.7 286.868C231.362 285.532 229.774 284.472 228.025 283.749C226.277 283.026 224.403 282.654 222.511 282.654V282.654Z" stroke="#3F3D56" stroke-miterlimit="10"/>
<path d="M670.454 282.654H646.575V212.444C646.575 208.715 645.091 205.139 642.45 202.502C639.809 199.865 636.227 198.384 632.492 198.384H626.897C625.048 198.384 623.216 198.747 621.508 199.454C619.799 200.161 618.247 201.196 616.939 202.502C615.631 203.808 614.594 205.358 613.886 207.064C613.179 208.77 612.815 210.598 612.815 212.444V282.654H545.459C544.073 282.654 542.711 282.297 541.505 281.616C540.298 280.936 539.289 279.955 538.573 278.77C537.858 277.585 537.462 276.236 537.423 274.853C537.384 273.47 537.704 272.101 538.351 270.877L609.639 136.16C610.528 134.481 611.067 132.639 611.223 130.745C611.379 128.852 611.149 126.947 610.547 125.145C609.946 123.343 608.985 121.681 607.722 120.26C606.459 118.839 604.921 117.689 603.201 116.877L598.993 114.893C595.725 113.352 591.989 113.125 588.558 114.258C585.127 115.391 582.264 117.797 580.56 120.979L493.615 283.375C492.134 286.14 491.359 289.228 491.359 292.363C491.359 297.42 493.371 302.269 496.952 305.845C500.534 309.421 505.391 311.429 510.455 311.429H612.815V355.825C612.815 360.295 614.593 364.582 617.759 367.743C620.924 370.904 625.218 372.679 629.695 372.679V372.679C634.172 372.679 638.465 370.904 641.631 367.743C644.796 364.582 646.575 360.295 646.575 355.825V311.429H670.454C672.347 311.429 674.22 311.057 675.969 310.334C677.717 309.611 679.305 308.551 680.644 307.215C681.982 305.879 683.043 304.293 683.767 302.548C684.491 300.802 684.864 298.931 684.864 297.042V297.042C684.864 293.226 683.346 289.566 680.644 286.868C677.941 284.17 674.276 282.654 670.454 282.654V282.654Z" stroke="#3F3D56" stroke-miterlimit="10"/>
<path d="M362.904 104.659C305.149 104.659 263.682 141.655 263.682 227.981C263.682 325.817 305.149 351.715 362.904 351.715C420.659 351.715 464.597 323.351 464.597 227.981C464.597 126.035 420.659 104.659 362.904 104.659ZM363.284 319.24C323.281 319.24 302.383 295.808 302.383 228.044C302.383 168.253 324.137 136.723 364.139 136.723C404.142 136.723 425.896 157.434 425.896 228.044C425.896 294.099 403.286 319.24 363.284 319.24V319.24Z" stroke="#3F3D56" stroke-miterlimit="10"/>
<path d="M676.621 281.504C678.656 282.243 680.836 282.5 682.988 282.254C685.14 282.008 687.206 281.267 689.022 280.088C690.838 278.91 692.355 277.326 693.453 275.462C694.552 273.598 695.202 271.505 695.352 269.347C695.502 267.19 695.148 265.027 694.318 263.029C693.488 261.032 692.205 259.254 690.569 257.836C688.934 256.418 686.991 255.399 684.893 254.858C682.796 254.318 680.602 254.271 678.483 254.722L678.833 261.91L675.427 255.75C672.085 257.318 669.502 260.147 668.248 263.616C667.802 264.83 667.531 266.102 667.443 267.393C667.228 270.422 668.008 273.437 669.664 275.984C671.32 278.53 673.762 280.468 676.621 281.504Z" fill="#57B894"/>
<path d="M693.473 364.867C692.27 358.755 697.48 353.336 702.626 349.813C707.772 346.291 713.785 342.83 715.541 336.852C718.064 328.261 710.548 320.394 704.697 313.609C700.357 308.574 696.63 303.043 693.593 297.132C692.376 294.761 691.258 292.284 690.937 289.639C690.476 285.831 691.701 282.042 692.936 278.41C697.048 266.309 701.445 254.31 706.126 242.412" stroke="#3F3D56" stroke-miterlimit="10"/>
<path d="M677.197 279.654C679.232 280.393 681.412 280.649 683.564 280.404C685.716 280.158 687.782 279.416 689.598 278.238C691.414 277.059 692.931 275.475 694.029 273.611C695.128 271.748 695.778 269.654 695.928 267.497C696.078 265.339 695.724 263.176 694.894 261.179C694.064 259.181 692.781 257.403 691.145 255.985C689.51 254.567 687.567 253.548 685.469 253.008C683.372 252.467 681.178 252.421 679.059 252.872L679.409 260.059L676.003 253.9C672.661 255.468 670.078 258.297 668.824 261.765C668.378 262.98 668.107 264.252 668.019 265.543C667.804 268.571 668.584 271.587 670.24 274.133C671.896 276.68 674.338 278.618 677.197 279.654V279.654Z" stroke="#3F3D56" stroke-miterlimit="10"/>
<path d="M691.763 239.93C692.561 237.729 693.902 235.764 695.661 234.217C697.421 232.669 699.542 231.589 701.829 231.075L702.981 237.908L705.116 230.731C708.08 230.775 710.954 231.759 713.322 233.539C715.69 235.32 717.43 237.806 718.29 240.639C719.151 243.472 719.088 246.504 718.11 249.298C717.132 252.093 715.29 254.505 712.85 256.186C710.41 257.867 707.498 258.73 704.534 258.651C701.571 258.571 698.709 257.554 696.362 255.745C694.016 253.936 692.305 251.429 691.479 248.587C690.652 245.744 690.751 242.713 691.762 239.93H691.763Z" fill="#57B894"/>
<path d="M692.53 237.463C693.329 235.262 694.67 233.297 696.429 231.75C698.188 230.202 700.309 229.121 702.597 228.608L703.748 235.44L705.883 228.264C708.848 228.308 711.721 229.291 714.089 231.072C716.457 232.853 718.197 235.339 719.058 238.172C719.919 241.004 719.856 244.037 718.878 246.831C717.9 249.625 716.058 252.037 713.618 253.718C711.177 255.399 708.265 256.262 705.302 256.183C702.338 256.104 699.476 255.086 697.13 253.278C694.783 251.469 693.073 248.962 692.246 246.119C691.419 243.277 691.519 240.245 692.53 237.463H692.53Z" stroke="#3F3D56" stroke-miterlimit="10"/>
<path d="M702.242 313.747C705.47 314.917 709.016 314.859 712.205 313.585C715.393 312.311 718.001 309.911 719.531 306.841C721.06 303.771 721.405 300.246 720.499 296.939C719.594 293.631 717.501 290.772 714.619 288.906L712.979 294.421L711.815 287.508C711.804 287.502 711.792 287.498 711.78 287.494C710.053 286.868 708.22 286.587 706.384 286.668C704.549 286.749 702.747 287.191 701.083 287.967C699.418 288.744 697.923 289.84 696.683 291.194C695.443 292.547 694.482 294.132 693.856 295.856C693.229 297.581 692.949 299.411 693.032 301.244C693.114 303.077 693.557 304.875 694.336 306.536C695.115 308.198 696.214 309.69 697.57 310.927C698.927 312.164 700.514 313.123 702.241 313.747H702.242Z" fill="#57B894"/>
<path d="M702.908 311.248C706.136 312.417 709.682 312.36 712.871 311.086C716.059 309.812 718.667 307.412 720.197 304.342C721.726 301.272 722.071 297.747 721.165 294.439C720.26 291.132 718.167 288.273 715.285 286.407L713.645 291.922L712.481 285.008C712.47 285.003 712.458 284.999 712.446 284.995C710.719 284.368 708.886 284.088 707.05 284.169C705.215 284.25 703.413 284.691 701.749 285.468C700.084 286.245 698.589 287.341 697.349 288.695C696.109 290.048 695.148 291.632 694.522 293.357C693.895 295.081 693.615 296.912 693.698 298.745C693.78 300.577 694.223 302.376 695.002 304.037C695.781 305.699 696.88 307.191 698.236 308.428C699.593 309.665 701.18 310.624 702.907 311.248H702.908Z" stroke="#3F3D56" stroke-miterlimit="10"/>
<path d="M687.682 336.938C688.237 340.091 689.861 342.959 692.282 345.058C694.703 347.158 697.774 348.363 700.979 348.471C704.184 348.579 707.329 347.583 709.886 345.65C712.443 343.718 714.257 340.966 715.023 337.857C715.789 334.748 715.462 331.47 714.095 328.573C712.728 325.677 710.405 323.337 707.516 321.948C704.627 320.558 701.347 320.203 698.226 320.941C695.106 321.679 692.334 323.466 690.377 326.003L696.608 335.367L688.094 330.397C687.434 332.513 687.292 334.756 687.682 336.938Z" fill="#57B894"/>
<path d="M688.258 335.087C688.813 338.241 690.437 341.108 692.858 343.208C695.279 345.308 698.35 346.513 701.555 346.621C704.76 346.728 707.905 345.732 710.462 343.8C713.019 341.867 714.833 339.116 715.599 336.007C716.365 332.897 716.038 329.62 714.671 326.723C713.304 323.826 710.981 321.487 708.092 320.097C705.203 318.708 701.923 318.352 698.802 319.09C695.682 319.829 692.91 321.616 690.953 324.152L697.184 333.517L688.67 328.546C688.01 330.662 687.868 332.905 688.258 335.087V335.087Z" stroke="#3F3D56" stroke-miterlimit="10"/>
<path d="M6.05357 315.522C7.39106 316.007 8.82321 316.176 10.2371 316.014C11.6511 315.853 13.0081 315.366 14.2013 314.591C15.3945 313.817 16.3913 312.776 17.113 311.552C17.8347 310.327 18.2617 308.952 18.3603 307.534C18.4589 306.117 18.2264 304.696 17.6811 303.383C17.1358 302.071 16.2927 300.903 15.2181 299.971C14.1435 299.039 12.8669 298.37 11.4889 298.015C10.1109 297.66 8.66915 297.629 7.27729 297.925L7.5073 302.648L5.2696 298.601C3.07343 299.631 1.37679 301.49 0.552535 303.769C0.259807 304.567 0.0818499 305.402 0.0239731 306.25C-0.117272 308.24 0.394939 310.222 1.48298 311.895C2.57103 313.568 4.1756 314.841 6.05357 315.522Z" fill="#57B894"/>
<path d="M17.1256 370.293C16.3357 366.277 19.7586 362.716 23.1395 360.402C26.5205 358.088 30.471 355.814 31.6246 351.886C33.2825 346.242 28.3441 341.073 24.5004 336.615C21.6487 333.307 19.1998 329.673 17.2048 325.789C16.3375 324.264 15.7468 322.597 15.4599 320.867C15.1568 318.365 15.9618 315.875 16.7729 313.488C19.4748 305.538 22.3636 297.655 25.4393 289.837" stroke="#3F3D56" stroke-miterlimit="10"/>
<path d="M6.43151 314.306C7.769 314.791 9.20115 314.96 10.6151 314.799C12.029 314.637 13.386 314.15 14.5792 313.376C15.7724 312.601 16.7692 311.561 17.4909 310.336C18.2127 309.111 18.6396 307.736 18.7382 306.319C18.8368 304.901 18.6043 303.48 18.059 302.168C17.5137 300.855 16.6706 299.687 15.596 298.755C14.5215 297.824 13.2449 297.154 11.8668 296.799C10.4888 296.444 9.04709 296.413 7.65523 296.71L7.88524 301.432L5.64753 297.385C3.45136 298.415 1.75472 300.274 0.930465 302.553C0.63774 303.351 0.459786 304.186 0.401906 305.035C0.260652 307.024 0.772859 309.006 1.86091 310.679C2.94895 312.352 4.55353 313.625 6.43151 314.306V314.306Z" stroke="#3F3D56" stroke-miterlimit="10"/>
<path d="M16.0022 288.207C16.5271 286.761 17.408 285.47 18.5639 284.453C19.7197 283.436 21.1133 282.726 22.6161 282.389L23.3727 286.878L24.7755 282.163C26.7231 282.192 28.6111 282.838 30.167 284.008C31.7229 285.178 32.8661 286.811 33.4315 288.672C33.997 290.534 33.9555 292.526 33.313 294.362C32.6705 296.198 31.4603 297.782 29.857 298.887C28.2538 299.991 26.3405 300.558 24.3934 300.506C22.4462 300.454 20.5661 299.786 19.0243 298.597C17.4825 297.409 16.3589 295.762 15.8157 293.894C15.2725 292.027 15.3378 290.035 16.0022 288.207Z" fill="#57B894"/>
<path d="M16.5071 286.586C17.032 285.14 17.9129 283.849 19.0688 282.832C20.2246 281.815 21.6182 281.105 23.121 280.768L23.8776 285.257L25.2804 280.542C27.228 280.571 29.116 281.217 30.6719 282.387C32.2277 283.557 33.3709 285.19 33.9364 287.051C34.5019 288.912 34.4604 290.905 33.8179 292.741C33.1754 294.577 31.9652 296.161 30.3619 297.266C28.7587 298.37 26.8454 298.937 24.8982 298.885C22.9511 298.833 21.0709 298.165 19.5292 296.976C17.9874 295.788 16.8638 294.141 16.3206 292.273C15.7774 290.405 15.8427 288.414 16.5071 286.586V286.586Z" stroke="#3F3D56" stroke-miterlimit="10"/>
<path d="M22.887 336.706C25.0082 337.474 27.3382 337.436 29.4332 336.599C31.5281 335.763 33.2413 334.185 34.2464 332.168C35.2514 330.151 35.478 327.835 34.8829 325.662C34.2877 323.489 32.9126 321.611 31.0194 320.385L29.9416 324.008L29.1773 319.466C29.1697 319.462 29.1619 319.459 29.1539 319.457C28.0193 319.045 26.8146 318.861 25.6085 318.914C24.4024 318.967 23.2186 319.257 22.1248 319.767C21.031 320.277 20.0486 320.998 19.2338 321.887C18.419 322.776 17.7877 323.817 17.376 324.951C16.9643 326.084 16.7803 327.287 16.8345 328.491C16.8886 329.695 17.18 330.877 17.6918 331.968C18.2036 333.06 18.9258 334.04 19.8172 334.853C20.7087 335.666 21.7518 336.296 22.887 336.706Z" fill="#57B894"/>
<path d="M23.3237 335.064C25.4448 335.832 27.7749 335.794 29.8698 334.957C31.9647 334.121 33.678 332.543 34.6831 330.526C35.6881 328.509 35.9147 326.193 35.3195 324.02C34.7244 321.847 33.3492 319.969 31.4561 318.743L30.3782 322.366L29.6139 317.824C29.6064 317.82 29.5986 317.817 29.5906 317.815C28.4562 317.404 27.252 317.221 26.0465 317.274C24.841 317.328 23.658 317.619 22.565 318.129C20.3574 319.16 18.6504 321.024 17.8193 323.311C16.9883 325.598 17.1013 328.122 18.1336 330.326C19.1659 332.53 21.0328 334.234 23.3237 335.064V335.064Z" stroke="#3F3D56" stroke-miterlimit="10"/>
<path d="M13.3208 351.942C13.6856 354.014 14.7527 355.898 16.3434 357.278C17.9341 358.658 19.9515 359.449 22.0573 359.52C24.1632 359.591 26.2294 358.936 27.9094 357.667C29.5894 356.397 30.7811 354.589 31.2846 352.546C31.7881 350.504 31.5728 348.35 30.6747 346.447C29.7767 344.544 28.2506 343.007 26.3523 342.094C24.4541 341.181 22.2991 340.947 20.2488 341.432C18.1986 341.917 16.3777 343.092 15.0916 344.758L19.1857 350.911L13.5916 347.645C13.1579 349.035 13.065 350.509 13.3208 351.942Z" fill="#57B894"/>
<path d="M13.6988 350.727C14.0635 352.799 15.1307 354.682 16.7213 356.062C18.312 357.442 20.3294 358.233 22.4353 358.304C24.5411 358.375 26.6073 357.721 28.2873 356.451C29.9674 355.181 31.159 353.373 31.6625 351.331C32.166 349.288 31.9507 347.134 31.0527 345.231C30.1546 343.328 28.6285 341.791 26.7303 340.878C24.832 339.965 22.677 339.731 20.6268 340.216C18.5765 340.702 16.7556 341.876 15.4695 343.542L19.5636 349.695L13.9695 346.429C13.5358 347.819 13.4429 349.293 13.6988 350.727V350.727Z" stroke="#3F3D56" stroke-miterlimit="10"/>
<path d="M323.2 228.877C329.509 228.877 334.624 222.269 334.624 214.116C334.624 205.964 329.509 199.355 323.2 199.355C316.89 199.355 311.775 205.964 311.775 214.116C311.775 222.269 316.89 228.877 323.2 228.877Z" fill="#2F2E41"/>
<path d="M385.36 229.213C391.669 229.213 396.784 222.604 396.784 214.452C396.784 206.299 391.669 199.69 385.36 199.69C379.05 199.69 373.936 206.299 373.936 214.452C373.936 222.604 379.05 229.213 385.36 229.213Z" fill="#2F2E41"/>
<path d="M376.623 258.065C376.623 264.734 367.296 270.142 355.791 270.142C344.286 270.142 334.959 264.734 334.959 258.065C334.959 252.287 341.955 247.457 351.302 246.276C352.79 246.08 354.29 245.983 355.791 245.987C358.307 245.979 360.815 246.249 363.271 246.792C371.079 248.53 376.623 252.925 376.623 258.065Z" fill="#2F2E41"/>
<path d="M325.887 225.523C332.196 225.523 337.311 218.914 337.311 210.761C337.311 202.609 332.196 196 325.887 196C319.578 196 314.463 202.609 314.463 210.761C314.463 218.914 319.578 225.523 325.887 225.523Z" stroke="#3F3D56" stroke-miterlimit="10"/>
<path d="M388.049 225.858C394.358 225.858 399.473 219.249 399.473 211.097C399.473 202.944 394.358 196.335 388.049 196.335C381.74 196.335 376.625 202.944 376.625 211.097C376.625 219.249 381.74 225.858 388.049 225.858Z" stroke="#3F3D56" stroke-miterlimit="10"/>
<path d="M358.481 266.787C369.986 266.787 379.313 261.38 379.313 254.71C379.313 248.039 369.986 242.632 358.481 242.632C346.975 242.632 337.648 248.039 337.648 254.71C337.648 261.38 346.975 266.787 358.481 266.787Z" stroke="#3F3D56" stroke-miterlimit="10"/>
<path d="M363.52 247.799C363.525 248.642 363.208 249.456 362.632 250.075C362.361 250.371 362.031 250.608 361.663 250.77C361.295 250.933 360.898 251.018 360.496 251.019H353.775C352.947 250.991 352.164 250.636 351.598 250.032C351.031 249.429 350.727 248.626 350.751 247.799C350.748 247.145 350.94 246.504 351.302 245.959C352.79 245.75 354.29 245.648 355.791 245.652C358.31 245.643 360.82 245.932 363.271 246.51C363.437 246.92 363.521 247.357 363.52 247.799Z" fill="white"/>
<path d="M325.887 210.09C327.743 210.09 329.247 208.588 329.247 206.735C329.247 204.883 327.743 203.381 325.887 203.381C324.032 203.381 322.527 204.883 322.527 206.735C322.527 208.588 324.032 210.09 325.887 210.09Z" fill="white"/>
<path d="M388.383 210.09C390.239 210.09 391.744 208.588 391.744 206.735C391.744 204.883 390.239 203.381 388.383 203.381C386.528 203.381 385.023 204.883 385.023 206.735C385.023 208.588 386.528 210.09 388.383 210.09Z" fill="white"/>
<path opacity="0.3" d="M391.745 241.626C393.6 241.626 395.105 240.124 395.105 238.271C395.105 236.418 393.6 234.916 391.745 234.916C389.889 234.916 388.385 236.418 388.385 238.271C388.385 240.124 389.889 241.626 391.745 241.626Z" fill="#6C63FF"/>
<path opacity="0.3" d="M309.758 241.626C311.614 241.626 313.118 240.124 313.118 238.271C313.118 236.418 311.614 234.916 309.758 234.916C307.903 234.916 306.398 236.418 306.398 238.271C306.398 240.124 307.903 241.626 309.758 241.626Z" fill="#6C63FF"/>
</g>
<defs>
<clipPath id="clip0_153_2">
<rect width="722" height="392" fill="white"/>
</clipPath>
</defs>
</svg>
