<svg width="12" height="17" viewBox="0 0 12 17" fill="none" xmlns="http://www.w3.org/2000/svg">
<path d="M10.2428 10.7425L6 14.9853L1.75725 10.7425C0.918169 9.9034 0.346755 8.83431 0.115268 7.67043C-0.116218 6.50655 0.00262021 5.30017 0.456755 4.20383C0.91089 3.10749 1.67993 2.17044 2.66661 1.51116C3.6533 0.851886 4.81333 0.5 6 0.5C7.18668 0.5 8.3467 0.851886 9.33339 1.51116C10.3201 2.17044 11.0891 3.10749 11.5433 4.20383C11.9974 5.30017 12.1162 6.50655 11.8847 7.67043C11.6533 8.83431 11.0818 9.9034 10.2428 10.7425ZM0.750003 15.4998H11.25V16.9998H0.750003V15.4998Z" fill="black"/>
</svg>
