<svg width="131" height="82" viewBox="0 0 131 82" fill="none" xmlns="http://www.w3.org/2000/svg">
<path d="M2.96524 65.9938H8.51801V67.8888H0.619873V57.6884H8.32925V59.5834H2.96672V65.9938H2.96524ZM2.78986 61.7817H7.70055V63.6321H2.78986V61.7817Z" fill="black"/>
<path d="M27.3451 67.8888H24.97V57.6884H32.6793V59.5834H27.3451V67.8888ZM27.1563 62.2781H32.0521V64.1731H27.1563V62.2781Z" fill="black"/>
<path d="M51.2296 67.8888H48.8545V57.6884H56.5639V59.5834H51.2296V67.8888ZM51.0408 62.2781H55.9367V64.1731H51.0408V62.2781Z" fill="black"/>
<path d="M75.0856 65.9938H80.6384V67.8888H72.7402V57.6884H80.4496V59.5834H75.0871V65.9938H75.0856ZM74.9102 61.7817H79.8209V63.6321H74.9102V61.7817Z" fill="black"/>
<path d="M101.973 68.0627C101.187 68.0627 100.455 67.9334 99.779 67.6763C99.1042 67.4192 98.5186 67.0521 98.0222 66.5765C97.5273 66.1008 97.1408 65.542 96.8644 64.8999C96.5879 64.2593 96.4497 63.5548 96.4497 62.7864C96.4497 62.0195 96.5879 61.315 96.8644 60.6729C97.1408 60.0323 97.5302 59.4735 98.0296 58.9964C98.5305 58.5208 99.1176 58.1537 99.7924 57.8965C100.467 57.6394 101.198 57.5101 101.986 57.5101C102.87 57.5101 103.672 57.6632 104.391 57.9694C105.11 58.2755 105.712 58.7244 106.198 59.3174L104.667 60.716C104.327 60.3177 103.941 60.016 103.51 59.8124C103.077 59.6087 102.609 59.5062 102.104 59.5062C101.628 59.5062 101.189 59.5864 100.793 59.747C100.394 59.9075 100.049 60.1334 99.7582 60.4247C99.4669 60.716 99.241 61.0608 99.0804 61.4592C98.9199 61.8575 98.8397 62.2989 98.8397 62.7849C98.8397 63.2709 98.9199 63.7124 99.0804 64.1107C99.241 64.509 99.4669 64.8538 99.7582 65.1452C100.049 65.4365 100.394 65.6624 100.793 65.8229C101.191 65.9834 101.628 66.0637 102.104 66.0637C102.609 66.0637 103.077 65.9596 103.51 65.7501C103.942 65.542 104.329 65.2373 104.667 64.839L106.198 66.2376C105.712 66.8306 105.11 67.2824 104.391 67.5931C103.673 67.9082 102.866 68.0627 101.973 68.0627Z" fill="black"/>
<path d="M124.459 67.8888V59.6117H121.194V57.6884H130.083V59.6117H126.819V67.8888H124.459Z" fill="black"/>
<path d="M2.57574 81.7083V75.0483H0V74.378H5.92732V75.0483H3.35158V81.7083H2.57574Z" fill="#21D0ED"/>
<path d="M11.4353 81.7618C10.863 81.7618 10.3607 81.6415 9.92668 81.4007C9.49417 81.1599 9.1553 80.8285 8.91155 80.4063C8.66631 79.9842 8.54443 79.5012 8.54443 78.9557C8.54443 78.4117 8.66185 77.9287 8.8952 77.5111C9.12855 77.0919 9.44958 76.762 9.85831 76.5212C10.267 76.2804 10.7263 76.16 11.2346 76.16C11.7518 76.16 12.2096 76.2774 12.6124 76.5108C13.0137 76.7441 13.3303 77.0726 13.5607 77.4947C13.791 77.9168 13.907 78.4043 13.907 78.9557C13.907 78.9914 13.9055 79.0271 13.901 79.0657C13.898 79.1044 13.8951 79.1445 13.8951 79.1861H9.10922V78.6317H13.4967L13.2039 78.8517C13.2039 78.4534 13.1177 78.0996 12.9468 77.789C12.7759 77.4784 12.544 77.2361 12.2497 77.0607C11.957 76.8868 11.6181 76.7991 11.2346 76.7991C10.8571 76.7991 10.5197 76.8868 10.2195 77.0607C9.91925 77.2346 9.6859 77.4798 9.51795 77.7934C9.35 78.1071 9.26677 78.4667 9.26677 78.8725V78.9884C9.26677 79.4076 9.35892 79.7762 9.54471 80.0927C9.729 80.4108 9.98762 80.6575 10.3191 80.8359C10.6505 81.0142 11.0295 81.1034 11.4546 81.1034C11.789 81.1034 12.1026 81.044 12.3924 80.9251C12.6823 80.8062 12.932 80.6248 13.1415 80.3811L13.5607 80.8626C13.3169 81.1554 13.0107 81.3799 12.6451 81.533C12.278 81.6846 11.8752 81.7618 11.4353 81.7618Z" fill="#21D0ED"/>
<path d="M19.8019 81.7618C19.258 81.7618 18.7705 81.6415 18.3409 81.4007C17.9114 81.1599 17.574 80.8285 17.3302 80.4063C17.085 79.9842 16.9631 79.5012 16.9631 78.9557C16.9631 78.4043 17.085 77.9183 17.3302 77.5007C17.574 77.0815 17.9114 76.7531 18.3409 76.5167C18.7705 76.2804 19.2565 76.16 19.8019 76.16C20.2701 76.16 20.6922 76.2507 21.0697 76.432C21.4473 76.6133 21.743 76.8853 21.96 77.2495L21.4057 77.627C21.2169 77.3476 20.9835 77.1425 20.7041 77.0087C20.4247 76.8764 20.1215 76.8095 19.793 76.8095C19.4021 76.8095 19.0499 76.8987 18.7348 77.0771C18.4212 77.2554 18.173 77.5051 17.9916 77.8262C17.8103 78.1472 17.7197 78.5247 17.7197 78.9572C17.7197 79.3897 17.8103 79.7672 17.9916 80.0883C18.173 80.4093 18.4212 80.659 18.7348 80.8374C19.0484 81.0157 19.4006 81.1049 19.793 81.1049C20.1215 81.1049 20.4247 81.038 20.7041 80.9057C20.9835 80.7735 21.2169 80.5713 21.4057 80.2979L21.96 80.6754C21.743 81.0321 21.4473 81.3026 21.0697 81.4869C20.6922 81.6682 20.2701 81.7618 19.8019 81.7618Z" fill="#21D0ED"/>
<path d="M28.3151 76.1585C28.7625 76.1585 29.1549 76.2448 29.4938 76.4157C29.8326 76.5866 30.0972 76.8467 30.2889 77.196C30.4806 77.5453 30.5773 77.9852 30.5773 78.5158V81.7098H29.8341V78.5886C29.8341 78.009 29.6885 77.5705 29.4001 77.2747C29.1103 76.9775 28.703 76.8303 28.1799 76.8303C27.789 76.8303 27.4486 76.9091 27.1588 77.0652C26.869 77.2227 26.646 77.4486 26.4885 77.7459C26.3309 78.0432 26.2536 78.3999 26.2536 78.819V81.7098H25.5105V73.9395H26.2536V77.7191L26.1065 77.4368C26.2804 77.0384 26.5598 76.7263 26.9448 76.4989C27.3267 76.273 27.7845 76.1585 28.3151 76.1585Z" fill="#21D0ED"/>
<path d="M37.4887 76.1585C37.9361 76.1585 38.3285 76.2447 38.6673 76.4157C39.0062 76.5866 39.2708 76.8467 39.4625 77.196C39.6542 77.5453 39.7508 77.9852 39.7508 78.5158V81.7098H39.0077V78.5886C39.0077 78.009 38.862 77.5705 38.5737 77.2747C38.2839 76.9775 37.8766 76.8303 37.3535 76.8303C36.9626 76.8303 36.6222 76.9091 36.3324 77.0652C36.0425 77.2227 35.8196 77.4486 35.6621 77.7459C35.5045 78.0432 35.4272 78.3999 35.4272 78.819V81.7098H34.6841V76.2121H35.396V77.7206L35.2816 77.4382C35.4555 77.0399 35.7349 76.7278 36.1198 76.5004C36.5003 76.273 36.9581 76.1585 37.4887 76.1585Z" fill="#21D0ED"/>
<path d="M44.232 74.9963C44.0789 74.9963 43.9496 74.9443 43.8441 74.8387C43.74 74.7347 43.6865 74.6083 43.6865 74.4612C43.6865 74.3141 43.7385 74.1907 43.8441 74.0896C43.9481 73.9886 44.0774 73.938 44.232 73.938C44.3851 73.938 44.5144 73.9871 44.6199 74.0852C44.724 74.1833 44.7775 74.3051 44.7775 74.4523C44.7775 74.6054 44.7269 74.7347 44.6259 74.8402C44.5233 74.9442 44.3925 74.9963 44.232 74.9963ZM43.8545 81.7083V76.2106H44.5976V81.7083H43.8545Z" fill="#21D0ED"/>
<path d="M51.0497 81.7618C50.5058 81.7618 50.0183 81.6415 49.5887 81.4007C49.1592 81.1599 48.8218 80.8285 48.5781 80.4063C48.3328 79.9842 48.2109 79.5012 48.2109 78.9557C48.2109 78.4043 48.3328 77.9183 48.5781 77.5007C48.8218 77.0815 49.1592 76.7531 49.5887 76.5167C50.0183 76.2804 50.5043 76.16 51.0497 76.16C51.5179 76.16 51.94 76.2507 52.3176 76.432C52.6951 76.6133 52.9908 76.8853 53.2078 77.2495L52.6535 77.627C52.4647 77.3476 52.2313 77.1425 51.9519 77.0087C51.6725 76.8764 51.3693 76.8095 51.0408 76.8095C50.6499 76.8095 50.2977 76.8987 49.9826 77.0771C49.669 77.2554 49.4208 77.5051 49.2394 77.8262C49.0581 78.1472 48.9675 78.5247 48.9675 78.9572C48.9675 79.3897 49.0581 79.7672 49.2394 80.0883C49.4208 80.4093 49.669 80.659 49.9826 80.8374C50.2962 81.0157 50.6484 81.1049 51.0408 81.1049C51.3693 81.1049 51.6725 81.038 51.9519 80.9057C52.2313 80.7735 52.4647 80.5713 52.6535 80.2979L53.2078 80.6754C52.9908 81.0321 52.6951 81.3026 52.3176 81.4869C51.9386 81.6682 51.5164 81.7618 51.0497 81.7618Z" fill="#21D0ED"/>
<path d="M58.3059 81.7618C57.8942 81.7618 57.536 81.6935 57.2328 81.5582C56.9296 81.4215 56.6962 81.2342 56.5357 80.9934C56.3752 80.7527 56.2949 80.4747 56.2949 80.1611C56.2949 79.8758 56.3633 79.6157 56.4985 79.3808C56.6353 79.1475 56.8582 78.9587 57.1689 78.816C57.4795 78.6733 57.8971 78.602 58.4203 78.602H60.3153V79.1564H58.4426C57.912 79.1564 57.5434 79.25 57.3383 79.4388C57.1317 79.6275 57.0291 79.8609 57.0291 80.1403C57.0291 80.4539 57.151 80.7051 57.3963 80.8939C57.64 81.0826 57.9833 81.1763 58.4218 81.1763C58.8409 81.1763 59.2021 81.0796 59.5053 80.8879C59.8085 80.6962 60.03 80.4182 60.1697 80.0556L60.3376 80.5684C60.1979 80.931 59.9557 81.2208 59.6093 81.4378C59.2645 81.6534 58.829 81.7618 58.3059 81.7618ZM60.2009 81.7083V80.494L60.1697 80.2949V78.2631C60.1697 77.7949 60.0389 77.4353 59.7773 77.1841C59.5157 76.9329 59.1263 76.8066 58.6091 76.8066C58.2524 76.8066 57.915 76.866 57.5939 76.9849C57.2729 77.1038 57.0009 77.2614 56.7765 77.4561L56.4421 76.9017C56.7215 76.6639 57.0559 76.4811 57.4468 76.3518C57.8377 76.2225 58.2494 76.1585 58.6819 76.1585C59.3938 76.1585 59.9438 76.3354 60.3317 76.6877C60.7196 77.0399 60.9128 77.5765 60.9128 78.2943V81.7083H60.2009Z" fill="#21D0ED"/>
<path d="M65.0283 81.7083V73.938H65.7715V81.7083H65.0283Z" fill="#21D0ED"/>
<path d="M76.9558 81.7722C76.4118 81.7722 75.8886 81.6831 75.3907 81.5047C74.8913 81.3264 74.5064 81.0975 74.2329 80.8195L74.5361 80.222C74.7947 80.4732 75.141 80.6843 75.578 80.8552C76.0135 81.0261 76.4727 81.1123 76.9543 81.1123C77.4151 81.1123 77.7896 81.0544 78.0794 80.9399C78.3692 80.8255 78.5818 80.6694 78.7185 80.4747C78.8553 80.28 78.9221 80.063 78.9221 79.8252C78.9221 79.5384 78.8404 79.308 78.6754 79.1341C78.5119 78.9602 78.2964 78.822 78.0319 78.7209C77.7658 78.6198 77.473 78.5306 77.152 78.4534C76.8309 78.3761 76.5099 78.2943 76.1889 78.2066C75.8678 78.1189 75.5721 78.003 75.3045 77.8559C75.0355 77.7087 74.8185 77.5155 74.655 77.2747C74.4915 77.034 74.4083 76.7174 74.4083 76.3265C74.4083 75.9638 74.5049 75.6294 74.6966 75.3262C74.8884 75.023 75.1841 74.7778 75.581 74.5935C75.9793 74.4092 76.4891 74.3155 77.1104 74.3155C77.5221 74.3155 77.9308 74.3735 78.3351 74.4879C78.7393 74.6039 79.0886 74.7614 79.3829 74.965L79.1213 75.5833C78.8077 75.3738 78.4733 75.2207 78.121 75.1226C77.7688 75.0245 77.4284 74.9754 77.1 74.9754C76.66 74.9754 76.2974 75.0349 76.0105 75.1538C75.7237 75.2727 75.5126 75.4317 75.3773 75.6309C75.2406 75.8301 75.1737 76.0545 75.1737 76.3057C75.1737 76.5925 75.2555 76.8229 75.4205 76.9968C75.5839 77.1707 75.8009 77.3074 76.07 77.4055C76.339 77.5036 76.6333 77.5913 76.9543 77.6671C77.2753 77.7444 77.5949 77.8276 77.913 77.9183C78.231 78.009 78.5238 78.1264 78.7928 78.2691C79.0619 78.4117 79.2774 78.602 79.4424 78.8398C79.6058 79.0776 79.6891 79.3882 79.6891 79.7717C79.6891 80.1284 79.591 80.4584 79.3963 80.7616C79.2001 81.0648 78.9028 81.31 78.5015 81.4943C78.0987 81.6786 77.5845 81.7722 76.9558 81.7722Z" fill="#21D0ED"/>
<path d="M85.5521 81.7618C85.014 81.7618 84.5369 81.6415 84.1178 81.4007C83.6987 81.1599 83.3672 80.827 83.1235 80.4004C82.8797 79.9753 82.7563 79.4923 82.7563 78.9557C82.7563 78.4043 82.8782 77.9183 83.1235 77.5007C83.3672 77.0815 83.7001 76.7531 84.1178 76.5167C84.5354 76.2804 85.014 76.16 85.5521 76.16C86.096 76.16 86.5806 76.2804 87.0027 76.5212C87.4248 76.762 87.7562 77.0904 87.997 77.5051C88.2378 77.9213 88.3582 78.4043 88.3582 78.9557C88.3582 79.4997 88.2378 79.9842 87.997 80.4063C87.7562 80.8285 87.4233 81.1599 86.9967 81.4007C86.5716 81.64 86.0901 81.7618 85.5521 81.7618ZM85.5521 81.1019C85.9504 81.1019 86.3026 81.0128 86.6103 80.8344C86.918 80.656 87.1602 80.4049 87.3386 80.0808C87.5169 79.7568 87.6061 79.3808 87.6061 78.9557C87.6061 78.5232 87.5169 78.1457 87.3386 77.8247C87.1602 77.5036 86.918 77.2539 86.6103 77.0756C86.3026 76.8972 85.9534 76.808 85.5639 76.808C85.1731 76.808 84.8238 76.8972 84.5161 77.0756C84.2085 77.2539 83.9647 77.5036 83.7834 77.8247C83.602 78.1457 83.5114 78.5232 83.5114 78.9557C83.5114 79.3823 83.602 79.7568 83.7834 80.0808C83.9647 80.4049 84.207 80.6575 84.5117 80.8344C84.8149 81.0128 85.1612 81.1019 85.5521 81.1019Z" fill="#21D0ED"/>
<path d="M91.9717 81.7083V73.938H92.7148V81.7083H91.9717Z" fill="#21D0ED"/>
<path d="M99.1546 81.7618C98.6865 81.7618 98.2792 81.6741 97.9299 81.5003C97.5807 81.3264 97.3101 81.0648 97.1184 80.7155C96.9267 80.3662 96.8301 79.9307 96.8301 79.4061V76.212H97.5732V79.3228C97.5732 79.9099 97.7174 80.3514 98.0072 80.6471C98.297 80.9444 98.7043 81.0915 99.2275 81.0915C99.6109 81.0915 99.9453 81.0128 100.228 80.8567C100.51 80.7006 100.727 80.4717 100.877 80.1715C101.027 79.8713 101.102 79.5116 101.102 79.0925V76.212H101.845V81.7098H101.133V80.2012L101.247 80.4732C101.073 80.8775 100.803 81.1941 100.436 81.4215C100.072 81.6474 99.6436 81.7618 99.1546 81.7618Z" fill="#21D0ED"/>
<path d="M105.155 76.8289V76.2106H108.558V76.8289H105.155ZM107.753 81.7619C107.236 81.7619 106.839 81.6221 106.559 81.3427C106.28 81.0633 106.14 80.6694 106.14 80.1596V74.9977H106.883V80.118C106.883 80.4391 106.965 80.6873 107.13 80.8612C107.294 81.0351 107.53 81.1227 107.838 81.1227C108.166 81.1227 108.438 81.0291 108.655 80.8403L108.917 81.3739C108.769 81.5062 108.594 81.6043 108.387 81.6667C108.179 81.7291 107.968 81.7619 107.753 81.7619Z" fill="#21D0ED"/>
<path d="M112.736 74.9963C112.583 74.9963 112.454 74.9443 112.348 74.8387C112.244 74.7347 112.191 74.6083 112.191 74.4612C112.191 74.3141 112.243 74.1907 112.348 74.0896C112.454 73.9886 112.582 73.938 112.736 73.938C112.889 73.938 113.019 73.9871 113.124 74.0852C113.23 74.1833 113.282 74.3051 113.282 74.4523C113.282 74.6054 113.231 74.7347 113.13 74.8402C113.028 74.9442 112.897 74.9963 112.736 74.9963ZM112.36 81.7083V76.2106H113.104V81.7083H112.36Z" fill="#21D0ED"/>
<path d="M119.513 81.7618C118.974 81.7618 118.497 81.6415 118.078 81.4007C117.659 81.1599 117.328 80.827 117.084 80.4004C116.84 79.9753 116.717 79.4923 116.717 78.9557C116.717 78.4043 116.839 77.9183 117.084 77.5007C117.328 77.0815 117.661 76.7531 118.078 76.5167C118.496 76.2804 118.974 76.16 119.513 76.16C120.056 76.16 120.541 76.2804 120.963 76.5212C121.385 76.762 121.717 77.0904 121.957 77.5051C122.198 77.9213 122.319 78.4043 122.319 78.9557C122.319 79.4997 122.198 79.9842 121.957 80.4063C121.717 80.8285 121.384 81.1599 120.957 81.4007C120.531 81.64 120.049 81.7618 119.513 81.7618ZM119.513 81.1019C119.911 81.1019 120.263 81.0128 120.571 80.8344C120.878 80.656 121.121 80.4049 121.299 80.0808C121.477 79.7568 121.567 79.3808 121.567 78.9557C121.567 78.5232 121.477 78.1457 121.299 77.8247C121.121 77.5036 120.878 77.2539 120.571 77.0756C120.263 76.8972 119.914 76.808 119.524 76.808C119.134 76.808 118.784 76.8972 118.477 77.0756C118.169 77.2539 117.925 77.5036 117.744 77.8247C117.563 78.1457 117.472 78.5232 117.472 78.9557C117.472 79.3823 117.563 79.7568 117.744 80.0808C117.925 80.4049 118.167 80.6575 118.472 80.8344C118.774 81.0128 119.12 81.1019 119.513 81.1019Z" fill="#21D0ED"/>
<path d="M128.738 76.1585C129.184 76.1585 129.577 76.2447 129.916 76.4157C130.255 76.5866 130.52 76.8467 130.712 77.196C130.903 77.5453 131 77.9852 131 78.5158V81.7098H130.257V78.5886C130.257 78.009 130.111 77.5705 129.823 77.2747C129.533 76.9775 129.126 76.8303 128.602 76.8303C128.212 76.8303 127.871 76.9091 127.581 77.0652C127.292 77.2227 127.069 77.4486 126.911 77.7459C126.754 78.0432 126.676 78.3999 126.676 78.819V81.7098H125.933V76.2121H126.645V77.7206L126.531 77.4382C126.704 77.0399 126.984 76.7278 127.369 76.5004C127.749 76.273 128.207 76.1585 128.738 76.1585Z" fill="#21D0ED"/>
<path d="M123.72 18.553C123.046 23.6658 120.434 28.2302 117.514 30.9873C116.212 32.2164 115.075 32.9283 113.872 33.6819C107.523 37.6622 101.28 38.2522 98.8919 38.3206C95.2981 38.4246 88.6098 38.6164 83.1833 34.0431C82.1415 33.1661 79.6683 31.0809 78.4257 27.7694C83.2904 29.012 88.43 29.4371 93.571 28.3253C100.133 26.9059 108.36 22.78 109.944 15.8241C110.231 14.5667 110.711 11.288 108.994 8.02558C106.418 3.13123 100.803 1.99571 98.9573 1.62265C90.8868 -0.00929554 81.5574 3.73169 76.2706 10.7202L76.2454 10.7529C74.2136 13.4386 72.8239 16.169 72.0823 18.926C67.5446 16.8675 63.3904 14.326 59.9675 12.2347L59.9036 12.1961C56.1998 9.92951 51.8479 7.50538 47.6521 5.36958C42.4204 2.70764 38.6482 1.12623 33.7048 0.394973C30.5851 -0.0672623 28.045 -0.0256484 26.8069 0.0397483C13.4972 0.73979 6.94714 6.56456 3.79769 11.3281C-0.100842 17.2227 -0.300005 22.5853 0.21871 26.0453C0.999012 31.2429 3.87052 35.8117 8.76784 39.6315C14.0085 43.7218 20.0042 44.9361 25.282 44.9361C31.7072 44.9361 37.0683 43.1332 38.6913 42.5253C43.8368 40.5976 47.6952 37.6949 50.1506 35.678C51.6532 34.4444 53.0726 33.1112 54.4043 31.6918L57.4453 34.1397L59.1932 22.3326L52.9507 23.7802L52.9121 23.752C52.9017 23.7669 52.8898 23.7817 52.8779 23.7966L46.4497 25.2859L49.5353 27.7694C48.483 28.8648 47.3697 29.8993 46.1985 30.8624C44.8535 31.9667 41.2804 34.9006 36.5079 36.6887C35.0291 37.2416 21.7981 41.8922 12.5921 34.7074C11.2559 33.6656 7.19089 30.4938 6.38532 25.1194C5.86661 21.6563 6.745 18.171 8.9997 14.7629C12.3825 9.64563 18.6546 6.70575 27.1384 6.25987C28.1431 6.20636 30.2135 6.17515 32.7952 6.55713C36.9152 7.1665 40.0795 8.50565 44.8282 10.9209C48.8843 12.9853 53.083 15.3233 56.6531 17.5081L56.7185 17.5482C60.6289 19.9397 65.7551 23.0743 71.5398 25.4538C71.5784 25.8313 71.6274 26.2073 71.6899 26.5849C72.8195 33.456 77.5979 37.4823 79.1689 38.8066C86.4145 44.9123 94.9637 44.6671 99.0733 44.5481C101.972 44.4649 109.537 43.753 117.184 38.9612C118.459 38.1631 120.045 37.1687 121.794 35.5175C125.867 31.6739 129.324 25.4969 130.009 18.5515H123.72V18.553ZM81.2155 14.5132L81.2408 14.4805C85.0739 9.41377 92.006 6.57645 97.7237 7.73129C99.0881 8.00774 102.282 8.65279 103.48 10.9283C104.269 12.428 103.942 14.1179 103.868 14.4404C103.037 18.0878 97.3967 21.1228 92.2527 22.2345C87.4728 23.269 82.5992 22.6373 77.9472 21.1882C78.6323 17.9257 80.4664 15.5031 81.2155 14.5132Z" fill="#21D0ED"/>
</svg>
