<svg width="76" height="76" viewBox="0 0 76 76" fill="none" xmlns="http://www.w3.org/2000/svg">
<path d="M38 75.5C17.2888 75.5 0.5 58.7113 0.5 38C0.5 17.2888 17.2888 0.5 38 0.5C58.7113 0.5 75.5 17.2888 75.5 38C75.5 58.7113 58.7113 75.5 38 75.5ZM32.8325 24.5562C32.6068 24.4057 32.3445 24.3191 32.0735 24.3058C31.8025 24.2925 31.533 24.353 31.2937 24.4807C31.0543 24.6085 30.8541 24.7988 30.7143 25.0313C30.5746 25.2638 30.5005 25.5299 30.5 25.8012V50.1987C30.5005 50.4701 30.5746 50.7362 30.7143 50.9687C30.8541 51.2012 31.0543 51.3915 31.2937 51.5193C31.533 51.647 31.8025 51.7075 32.0735 51.6942C32.3445 51.6809 32.6068 51.5943 32.8325 51.4437L51.1287 39.2487C51.3345 39.1118 51.5032 38.9262 51.6199 38.7083C51.7366 38.4905 51.7977 38.2471 51.7977 38C51.7977 37.7529 51.7366 37.5095 51.6199 37.2917C51.5032 37.0738 51.3345 36.8882 51.1287 36.7513L32.8288 24.5562H32.8325Z" fill="white"/>
</svg>
