<svg width="32" height="32" viewBox="0 0 32 32" fill="none" xmlns="http://www.w3.org/2000/svg">
<g clip-path="url(#clip0_301_949)">
<path d="M28.7238 8.66367C29.3332 11.0397 29.3332 15.9997 29.3332 15.9997C29.3332 15.9997 29.3332 20.9597 28.7238 23.3357C28.3852 24.649 27.3945 25.6823 26.1398 26.0317C23.8612 26.6663 15.9998 26.6663 15.9998 26.6663C15.9998 26.6663 8.1425 26.6663 5.85984 26.0317C4.59984 25.677 3.6105 24.645 3.27584 23.3357C2.6665 20.9597 2.6665 15.9997 2.6665 15.9997C2.6665 15.9997 2.6665 11.0397 3.27584 8.66367C3.6145 7.35034 4.60517 6.31701 5.85984 5.96767C8.1425 5.33301 15.9998 5.33301 15.9998 5.33301C15.9998 5.33301 23.8612 5.33301 26.1398 5.96767C27.3998 6.32234 28.3892 7.35434 28.7238 8.66367ZM13.3332 20.6663L21.3332 15.9997L13.3332 11.333V20.6663Z" fill="white"/>
</g>
<defs>
<clipPath id="clip0_301_949">
<rect width="32" height="32" fill="white"/>
</clipPath>
</defs>
</svg>
